<svg id="圖層_1" data-name="圖層 1" xmlns="http://www.w3.org/2000/svg" viewBox="0 0 606.16 109.71"><defs><style>.cls-1{font-size:96px;font-family:HanziPenTC-W3-B5pc-H, HanziPen TC;}.cls-1,.cls-2{fill:#b57c80;}</style></defs><text class="cls-1" transform="translate(111.76 85.62)">啾咪甜點舖</text><g id="Icon"><path class="cls-2" d="M87.44,29.16c-30.29,0-54.87,22.67-54.87,50.62,0,26.64,22.47,48.51,50.83,50.45,1.32.08,2.64.16,4,.16,9.84,0,17.74-1.78,17.74-16,0-10.77-4.57-20-11.07-23.89A16.92,16.92,0,0,0,105.7,74.59a13.79,13.79,0,0,0-1.31-5.91,36.82,36.82,0,0,0,2.54-11.1L95.34,62a28.39,28.39,0,0,0-8.07-1.06A30.42,30.42,0,0,0,78.84,62L67.69,57.1a29.89,29.89,0,0,0,2.19,12.31,13.14,13.14,0,0,0-1,5.1c0,7.21,5.09,13.28,11.94,15.79-6.59,3.81-11.24,13.12-11.24,24a26.86,26.86,0,0,0,.35,4.86C53.2,112.9,41.26,97.59,41.26,79.78c0-23.49,20.72-42.6,46.18-42.6s46.18,19.11,46.18,42.6a4.32,4.32,0,0,0,8.61,0C142.32,51.83,117.73,29.16,87.44,29.16Z" transform="translate(-32.57 -29.16)"/></g></svg>